<?xml version="1.0" encoding="utf-8" standalone="no"?>
<!DOCTYPE svg PUBLIC "-//W3C//DTD SVG 1.1//EN"
  "http://www.w3.org/Graphics/SVG/1.1/DTD/svg11.dtd">
<svg xmlns:xlink="http://www.w3.org/1999/xlink" width="460.8pt" height="345.6pt" viewBox="0 0 460.8 345.6" xmlns="http://www.w3.org/2000/svg" version="1.1">
 <metadata>
  <rdf:RDF xmlns:dc="http://purl.org/dc/elements/1.1/" xmlns:cc="http://creativecommons.org/ns#" xmlns:rdf="http://www.w3.org/1999/02/22-rdf-syntax-ns#">
   <cc:Work>
    <dc:type rdf:resource="http://purl.org/dc/dcmitype/StillImage"/>
    <dc:date>2023-06-20T01:06:44.879462</dc:date>
    <dc:format>image/svg+xml</dc:format>
    <dc:creator>
     <cc:Agent>
      <dc:title>Matplotlib v3.5.2, https://matplotlib.org/</dc:title>
     </cc:Agent>
    </dc:creator>
   </cc:Work>
  </rdf:RDF>
 </metadata>
 <defs>
  <style type="text/css">*{stroke-linejoin: round; stroke-linecap: butt}</style>
 </defs>
 <g id="figure_1">
  <g id="patch_1">
   <path d="M 0 345.6 
L 460.8 345.6 
L 460.8 0 
L 0 0 
z
" style="fill: #ffffff"/>
  </g>
  <g id="axes_1">
   <g id="patch_2">
    <path d="M 57.6 307.584 
L 414.72 307.584 
L 414.72 41.472 
L 57.6 41.472 
z
" style="fill: #ffffff"/>
   </g>
   <g id="patch_3">
    <path d="M 73.832727 307.584 
L 84.745485 307.584 
L 84.745485 266.959314 
L 73.832727 266.959314 
z
" clip-path="url(#p65904e012b)" style="fill: #1f77b4"/>
   </g>
   <g id="patch_4">
    <path d="M 87.473675 307.584 
L 98.386432 307.584 
L 98.386432 251.125192 
L 87.473675 251.125192 
z
" clip-path="url(#p65904e012b)" style="fill: #1f77b4"/>
   </g>
   <g id="patch_5">
    <path d="M 101.114622 307.584 
L 112.02738 307.584 
L 112.02738 237.141276 
L 101.114622 237.141276 
z
" clip-path="url(#p65904e012b)" style="fill: #1f77b4"/>
   </g>
   <g id="patch_6">
    <path d="M 114.755569 307.584 
L 125.668327 307.584 
L 125.668327 224.593562 
L 114.755569 224.593562 
z
" clip-path="url(#p65904e012b)" style="fill: #1f77b4"/>
   </g>
   <g id="patch_7">
    <path d="M 128.396516 307.584 
L 139.309274 307.584 
L 139.309274 212.530116 
L 128.396516 212.530116 
z
" clip-path="url(#p65904e012b)" style="fill: #1f77b4"/>
   </g>
   <g id="patch_8">
    <path d="M 142.037464 307.584 
L 152.950222 307.584 
L 152.950222 200.592553 
L 142.037464 200.592553 
z
" clip-path="url(#p65904e012b)" style="fill: #1f77b4"/>
   </g>
   <g id="patch_9">
    <path d="M 155.678411 307.584 
L 166.591169 307.584 
L 166.591169 188.816259 
L 155.678411 188.816259 
z
" clip-path="url(#p65904e012b)" style="fill: #1f77b4"/>
   </g>
   <g id="patch_10">
    <path d="M 169.319358 307.584 
L 180.232116 307.584 
L 180.232116 177.133313 
L 169.319358 177.133313 
z
" clip-path="url(#p65904e012b)" style="fill: #1f77b4"/>
   </g>
   <g id="patch_11">
    <path d="M 182.960306 307.584 
L 193.873063 307.584 
L 193.873063 165.575888 
L 182.960306 165.575888 
z
" clip-path="url(#p65904e012b)" style="fill: #1f77b4"/>
   </g>
   <g id="patch_12">
    <path d="M 196.601253 307.584 
L 207.514011 307.584 
L 207.514011 154.175951 
L 196.601253 154.175951 
z
" clip-path="url(#p65904e012b)" style="fill: #1f77b4"/>
   </g>
   <g id="patch_13">
    <path d="M 210.2422 307.584 
L 221.154958 307.584 
L 221.154958 142.86406 
L 210.2422 142.86406 
z
" clip-path="url(#p65904e012b)" style="fill: #1f77b4"/>
   </g>
   <g id="patch_14">
    <path d="M 223.883147 307.584 
L 234.795905 307.584 
L 234.795905 131.651402 
L 223.883147 131.651402 
z
" clip-path="url(#p65904e012b)" style="fill: #1f77b4"/>
   </g>
   <g id="patch_15">
    <path d="M 237.524095 307.584 
L 248.436853 307.584 
L 248.436853 120.490414 
L 237.524095 120.490414 
z
" clip-path="url(#p65904e012b)" style="fill: #1f77b4"/>
   </g>
   <g id="patch_16">
    <path d="M 251.165042 307.584 
L 262.0778 307.584 
L 262.0778 109.604166 
L 251.165042 109.604166 
z
" clip-path="url(#p65904e012b)" style="fill: #1f77b4"/>
   </g>
   <g id="patch_17">
    <path d="M 264.805989 307.584 
L 275.718747 307.584 
L 275.718747 99.434404 
L 264.805989 99.434404 
z
" clip-path="url(#p65904e012b)" style="fill: #1f77b4"/>
   </g>
   <g id="patch_18">
    <path d="M 278.446937 307.584 
L 289.359694 307.584 
L 289.359694 90.261307 
L 278.446937 90.261307 
z
" clip-path="url(#p65904e012b)" style="fill: #1f77b4"/>
   </g>
   <g id="patch_19">
    <path d="M 292.087884 307.584 
L 303.000642 307.584 
L 303.000642 81.521555 
L 292.087884 81.521555 
z
" clip-path="url(#p65904e012b)" style="fill: #1f77b4"/>
   </g>
   <g id="patch_20">
    <path d="M 305.728831 307.584 
L 316.641589 307.584 
L 316.641589 73.216546 
L 305.728831 73.216546 
z
" clip-path="url(#p65904e012b)" style="fill: #1f77b4"/>
   </g>
   <g id="patch_21">
    <path d="M 319.369778 307.584 
L 330.282536 307.584 
L 330.282536 65.826581 
L 319.369778 65.826581 
z
" clip-path="url(#p65904e012b)" style="fill: #1f77b4"/>
   </g>
   <g id="patch_22">
    <path d="M 333.010726 307.584 
L 343.923484 307.584 
L 343.923484 60.421952 
L 333.010726 60.421952 
z
" clip-path="url(#p65904e012b)" style="fill: #1f77b4"/>
   </g>
   <g id="patch_23">
    <path d="M 346.651673 307.584 
L 357.564431 307.584 
L 357.564431 56.778033 
L 346.651673 56.778033 
z
" clip-path="url(#p65904e012b)" style="fill: #1f77b4"/>
   </g>
   <g id="patch_24">
    <path d="M 360.29262 307.584 
L 371.205378 307.584 
L 371.205378 55.360715 
L 360.29262 55.360715 
z
" clip-path="url(#p65904e012b)" style="fill: #1f77b4"/>
   </g>
   <g id="patch_25">
    <path d="M 373.933568 307.584 
L 384.846325 307.584 
L 384.846325 54.144 
L 373.933568 54.144 
z
" clip-path="url(#p65904e012b)" style="fill: #1f77b4"/>
   </g>
   <g id="patch_26">
    <path d="M 387.574515 307.584 
L 398.487273 307.584 
L 398.487273 54.144 
L 387.574515 54.144 
z
" clip-path="url(#p65904e012b)" style="fill: #1f77b4"/>
   </g>
   <g id="matplotlib.axis_1">
    <g id="xtick_1">
     <g id="line2d_1">
      <defs>
       <path id="mb9b178a109" d="M 0 0 
L 0 3.5 
" style="stroke: #000000; stroke-width: 0.8"/>
      </defs>
      <g>
       <use xlink:href="#mb9b178a109" x="79.289106" y="307.584" style="stroke: #000000; stroke-width: 0.8"/>
      </g>
     </g>
     <g id="text_1">
      <!-- 0 -->
      <g transform="translate(76.107856 322.182437)scale(0.1 -0.1)">
       <defs>
        <path id="DejaVuSans-30" d="M 2034 4250 
Q 1547 4250 1301 3770 
Q 1056 3291 1056 2328 
Q 1056 1369 1301 889 
Q 1547 409 2034 409 
Q 2525 409 2770 889 
Q 3016 1369 3016 2328 
Q 3016 3291 2770 3770 
Q 2525 4250 2034 4250 
z
M 2034 4750 
Q 2819 4750 3233 4129 
Q 3647 3509 3647 2328 
Q 3647 1150 3233 529 
Q 2819 -91 2034 -91 
Q 1250 -91 836 529 
Q 422 1150 422 2328 
Q 422 3509 836 4129 
Q 1250 4750 2034 4750 
z
" transform="scale(0.015625)"/>
       </defs>
       <use xlink:href="#DejaVuSans-30"/>
      </g>
     </g>
    </g>
    <g id="xtick_2">
     <g id="line2d_2">
      <g>
       <use xlink:href="#mb9b178a109" x="147.493843" y="307.584" style="stroke: #000000; stroke-width: 0.8"/>
      </g>
     </g>
     <g id="text_2">
      <!-- 5 -->
      <g transform="translate(144.312593 322.182437)scale(0.1 -0.1)">
       <defs>
        <path id="DejaVuSans-35" d="M 691 4666 
L 3169 4666 
L 3169 4134 
L 1269 4134 
L 1269 2991 
Q 1406 3038 1543 3061 
Q 1681 3084 1819 3084 
Q 2600 3084 3056 2656 
Q 3513 2228 3513 1497 
Q 3513 744 3044 326 
Q 2575 -91 1722 -91 
Q 1428 -91 1123 -41 
Q 819 9 494 109 
L 494 744 
Q 775 591 1075 516 
Q 1375 441 1709 441 
Q 2250 441 2565 725 
Q 2881 1009 2881 1497 
Q 2881 1984 2565 2268 
Q 2250 2553 1709 2553 
Q 1456 2553 1204 2497 
Q 953 2441 691 2322 
L 691 4666 
z
" transform="scale(0.015625)"/>
       </defs>
       <use xlink:href="#DejaVuSans-35"/>
      </g>
     </g>
    </g>
    <g id="xtick_3">
     <g id="line2d_3">
      <g>
       <use xlink:href="#mb9b178a109" x="215.698579" y="307.584" style="stroke: #000000; stroke-width: 0.8"/>
      </g>
     </g>
     <g id="text_3">
      <!-- 10 -->
      <g transform="translate(209.336079 322.182437)scale(0.1 -0.1)">
       <defs>
        <path id="DejaVuSans-31" d="M 794 531 
L 1825 531 
L 1825 4091 
L 703 3866 
L 703 4441 
L 1819 4666 
L 2450 4666 
L 2450 531 
L 3481 531 
L 3481 0 
L 794 0 
L 794 531 
z
" transform="scale(0.015625)"/>
       </defs>
       <use xlink:href="#DejaVuSans-31"/>
       <use xlink:href="#DejaVuSans-30" x="63.623047"/>
      </g>
     </g>
    </g>
    <g id="xtick_4">
     <g id="line2d_4">
      <g>
       <use xlink:href="#mb9b178a109" x="283.903316" y="307.584" style="stroke: #000000; stroke-width: 0.8"/>
      </g>
     </g>
     <g id="text_4">
      <!-- 15 -->
      <g transform="translate(277.540816 322.182437)scale(0.1 -0.1)">
       <use xlink:href="#DejaVuSans-31"/>
       <use xlink:href="#DejaVuSans-35" x="63.623047"/>
      </g>
     </g>
    </g>
    <g id="xtick_5">
     <g id="line2d_5">
      <g>
       <use xlink:href="#mb9b178a109" x="352.108052" y="307.584" style="stroke: #000000; stroke-width: 0.8"/>
      </g>
     </g>
     <g id="text_5">
      <!-- 20 -->
      <g transform="translate(345.745552 322.182437)scale(0.1 -0.1)">
       <defs>
        <path id="DejaVuSans-32" d="M 1228 531 
L 3431 531 
L 3431 0 
L 469 0 
L 469 531 
Q 828 903 1448 1529 
Q 2069 2156 2228 2338 
Q 2531 2678 2651 2914 
Q 2772 3150 2772 3378 
Q 2772 3750 2511 3984 
Q 2250 4219 1831 4219 
Q 1534 4219 1204 4116 
Q 875 4013 500 3803 
L 500 4441 
Q 881 4594 1212 4672 
Q 1544 4750 1819 4750 
Q 2544 4750 2975 4387 
Q 3406 4025 3406 3419 
Q 3406 3131 3298 2873 
Q 3191 2616 2906 2266 
Q 2828 2175 2409 1742 
Q 1991 1309 1228 531 
z
" transform="scale(0.015625)"/>
       </defs>
       <use xlink:href="#DejaVuSans-32"/>
       <use xlink:href="#DejaVuSans-30" x="63.623047"/>
      </g>
     </g>
    </g>
   </g>
   <g id="matplotlib.axis_2">
    <g id="ytick_1">
     <g id="line2d_6">
      <defs>
       <path id="mc30d4367a3" d="M 0 0 
L -3.5 0 
" style="stroke: #000000; stroke-width: 0.8"/>
      </defs>
      <g>
       <use xlink:href="#mc30d4367a3" x="57.6" y="307.584" style="stroke: #000000; stroke-width: 0.8"/>
      </g>
     </g>
     <g id="text_6">
      <!-- 0 -->
      <g transform="translate(44.2375 311.383219)scale(0.1 -0.1)">
       <use xlink:href="#DejaVuSans-30"/>
      </g>
     </g>
    </g>
    <g id="ytick_2">
     <g id="line2d_7">
      <g>
       <use xlink:href="#mc30d4367a3" x="57.6" y="256.896" style="stroke: #000000; stroke-width: 0.8"/>
      </g>
     </g>
     <g id="text_7">
      <!-- 20 -->
      <g transform="translate(37.875 260.695219)scale(0.1 -0.1)">
       <use xlink:href="#DejaVuSans-32"/>
       <use xlink:href="#DejaVuSans-30" x="63.623047"/>
      </g>
     </g>
    </g>
    <g id="ytick_3">
     <g id="line2d_8">
      <g>
       <use xlink:href="#mc30d4367a3" x="57.6" y="206.208" style="stroke: #000000; stroke-width: 0.8"/>
      </g>
     </g>
     <g id="text_8">
      <!-- 40 -->
      <g transform="translate(37.875 210.007219)scale(0.1 -0.1)">
       <defs>
        <path id="DejaVuSans-34" d="M 2419 4116 
L 825 1625 
L 2419 1625 
L 2419 4116 
z
M 2253 4666 
L 3047 4666 
L 3047 1625 
L 3713 1625 
L 3713 1100 
L 3047 1100 
L 3047 0 
L 2419 0 
L 2419 1100 
L 313 1100 
L 313 1709 
L 2253 4666 
z
" transform="scale(0.015625)"/>
       </defs>
       <use xlink:href="#DejaVuSans-34"/>
       <use xlink:href="#DejaVuSans-30" x="63.623047"/>
      </g>
     </g>
    </g>
    <g id="ytick_4">
     <g id="line2d_9">
      <g>
       <use xlink:href="#mc30d4367a3" x="57.6" y="155.52" style="stroke: #000000; stroke-width: 0.8"/>
      </g>
     </g>
     <g id="text_9">
      <!-- 60 -->
      <g transform="translate(37.875 159.319219)scale(0.1 -0.1)">
       <defs>
        <path id="DejaVuSans-36" d="M 2113 2584 
Q 1688 2584 1439 2293 
Q 1191 2003 1191 1497 
Q 1191 994 1439 701 
Q 1688 409 2113 409 
Q 2538 409 2786 701 
Q 3034 994 3034 1497 
Q 3034 2003 2786 2293 
Q 2538 2584 2113 2584 
z
M 3366 4563 
L 3366 3988 
Q 3128 4100 2886 4159 
Q 2644 4219 2406 4219 
Q 1781 4219 1451 3797 
Q 1122 3375 1075 2522 
Q 1259 2794 1537 2939 
Q 1816 3084 2150 3084 
Q 2853 3084 3261 2657 
Q 3669 2231 3669 1497 
Q 3669 778 3244 343 
Q 2819 -91 2113 -91 
Q 1303 -91 875 529 
Q 447 1150 447 2328 
Q 447 3434 972 4092 
Q 1497 4750 2381 4750 
Q 2619 4750 2861 4703 
Q 3103 4656 3366 4563 
z
" transform="scale(0.015625)"/>
       </defs>
       <use xlink:href="#DejaVuSans-36"/>
       <use xlink:href="#DejaVuSans-30" x="63.623047"/>
      </g>
     </g>
    </g>
    <g id="ytick_5">
     <g id="line2d_10">
      <g>
       <use xlink:href="#mc30d4367a3" x="57.6" y="104.832" style="stroke: #000000; stroke-width: 0.8"/>
      </g>
     </g>
     <g id="text_10">
      <!-- 80 -->
      <g transform="translate(37.875 108.631219)scale(0.1 -0.1)">
       <defs>
        <path id="DejaVuSans-38" d="M 2034 2216 
Q 1584 2216 1326 1975 
Q 1069 1734 1069 1313 
Q 1069 891 1326 650 
Q 1584 409 2034 409 
Q 2484 409 2743 651 
Q 3003 894 3003 1313 
Q 3003 1734 2745 1975 
Q 2488 2216 2034 2216 
z
M 1403 2484 
Q 997 2584 770 2862 
Q 544 3141 544 3541 
Q 544 4100 942 4425 
Q 1341 4750 2034 4750 
Q 2731 4750 3128 4425 
Q 3525 4100 3525 3541 
Q 3525 3141 3298 2862 
Q 3072 2584 2669 2484 
Q 3125 2378 3379 2068 
Q 3634 1759 3634 1313 
Q 3634 634 3220 271 
Q 2806 -91 2034 -91 
Q 1263 -91 848 271 
Q 434 634 434 1313 
Q 434 1759 690 2068 
Q 947 2378 1403 2484 
z
M 1172 3481 
Q 1172 3119 1398 2916 
Q 1625 2713 2034 2713 
Q 2441 2713 2670 2916 
Q 2900 3119 2900 3481 
Q 2900 3844 2670 4047 
Q 2441 4250 2034 4250 
Q 1625 4250 1398 4047 
Q 1172 3844 1172 3481 
z
" transform="scale(0.015625)"/>
       </defs>
       <use xlink:href="#DejaVuSans-38"/>
       <use xlink:href="#DejaVuSans-30" x="63.623047"/>
      </g>
     </g>
    </g>
    <g id="ytick_6">
     <g id="line2d_11">
      <g>
       <use xlink:href="#mc30d4367a3" x="57.6" y="54.144" style="stroke: #000000; stroke-width: 0.8"/>
      </g>
     </g>
     <g id="text_11">
      <!-- 100 -->
      <g transform="translate(31.5125 57.943219)scale(0.1 -0.1)">
       <use xlink:href="#DejaVuSans-31"/>
       <use xlink:href="#DejaVuSans-30" x="63.623047"/>
       <use xlink:href="#DejaVuSans-30" x="127.246094"/>
      </g>
     </g>
    </g>
   </g>
   <g id="patch_27">
    <path d="M 57.6 307.584 
L 57.6 41.472 
" style="fill: none; stroke: #000000; stroke-width: 0.8; stroke-linejoin: miter; stroke-linecap: square"/>
   </g>
   <g id="patch_28">
    <path d="M 414.72 307.584 
L 414.72 41.472 
" style="fill: none; stroke: #000000; stroke-width: 0.8; stroke-linejoin: miter; stroke-linecap: square"/>
   </g>
   <g id="patch_29">
    <path d="M 57.6 307.584 
L 414.72 307.584 
" style="fill: none; stroke: #000000; stroke-width: 0.8; stroke-linejoin: miter; stroke-linecap: square"/>
   </g>
   <g id="patch_30">
    <path d="M 57.6 41.472 
L 414.72 41.472 
" style="fill: none; stroke: #000000; stroke-width: 0.8; stroke-linejoin: miter; stroke-linecap: square"/>
   </g>
  </g>
 </g>
 <defs>
  <clipPath id="p65904e012b">
   <rect x="57.6" y="41.472" width="357.12" height="266.112"/>
  </clipPath>
 </defs>
</svg>
